<?xml version="1.0" encoding="UTF-8" standalone="no"?>
<!-- Created with Inkscape (http://www.inkscape.org/) -->

<svg
   width="155.9174mm"
   height="109.2068mm"
   viewBox="0 0 155.9174 109.2068"
   version="1.1"
   id="svg1"
   xml:space="preserve"
   xmlns="http://www.w3.org/2000/svg"
   xmlns:svg="http://www.w3.org/2000/svg"><defs
     id="defs1" /><g
     id="layer4"
     style="display:inline"
     transform="translate(-227.77338,-74.276628)"><g
       id="g43"
       transform="translate(198.04634,24.067748)"
       style="display:inline"><g
         id="g41-0-5"
         transform="matrix(1.1832688,0,0,1.1832688,-17.116315,36.161999)"
         style="display:inline"><g
           id="g40-3-4"
           transform="translate(-122.51718,-0.990493)"
           style="display:inline"><path
             style="display:inline;fill:#024079;fill-opacity:1;stroke:none;stroke-width:0.264999"
             d="m 200.32358,53.367042 5.89028,-9.177868 -10.95865,-17.944795 -33.14993,57.669903 10.95865,-0.13698 10.82167,-18.62971 11.78056,18.90368 32.41738,-53.602129 -0.3395,-17.587398 -31.9409,52.833777 -6.43821,-10.13675 5.89028,-10.136751 z"
             id="path33-0-9-5" /><path
             style="display:inline;fill:#00b78b;fill-opacity:1;stroke:none;stroke-width:0.264999"
             d="m 228.08354,30.449146 14.08916,24.06439 5.48854,-8.41425 -19.9172,-33.237541 z"
             id="path33-0-3-4-1" /><path
             style="display:inline;fill:#00b78b;fill-opacity:1;stroke:none;stroke-width:0.264999"
             d="m 208.99919,66.280357 11.54292,-9.6191 16.6354,27.27299 23.65168,-37.910586 0.45266,-18.332883 L 237.517,66.280357 223.37126,42.855014 Z"
             id="path40-4-9-1" /><path
             style="display:inline;fill:#333333;fill-opacity:1;stroke:none;stroke-width:0.264999"
             d="m 260.82919,46.023657 7.24262,11.88243 h -11.54293 l -15.9564,26.02816 53.30116,0.11317 -5.20563,-9.39278 -31.9128,0.22634 4.86614,-8.03479 22.29369,0.11317 -22.63319,-39.268583 z"
             id="path40-4-0-6-6" /></g><g
           id="g20-5-1"
           style="display:inline;fill:#00b78b;fill-opacity:1;stroke:none"
           transform="translate(-2.7599506,-46.002733)"><rect
             style="fill:#024079;fill-opacity:1;stroke:none;stroke-width:0.264999"
             id="rect17-1-8-1-9"
             width="3.600328"
             height="3.600328"
             x="81.374847"
             y="73.333061" /><rect
             style="fill:#024079;fill-opacity:1;stroke:none;stroke-width:0.264999"
             id="rect17-1-8-4-3-3"
             width="3.600328"
             height="3.600328"
             x="90.545479"
             y="73.968529" /><rect
             style="fill:#00b78b;fill-opacity:1;stroke:none;stroke-width:0.264999"
             id="rect17-1-8-4-4-2-4"
             width="3.600328"
             height="3.600328"
             x="86.573433"
             y="66.872032" /><rect
             style="fill:#00b78b;fill-opacity:1;stroke:none;stroke-width:0.264999"
             id="rect17-1-8-4-4-7-6-7"
             width="3.600328"
             height="3.600328"
             x="84.936089"
             y="79.079155" /><rect
             style="fill:#00b78b;fill-opacity:1;stroke:none;stroke-width:0.264999"
             id="rect17-1-8-4-4-7-7-0-9-9"
             width="3.600328"
             height="3.600328"
             x="94.294106"
             y="68.071243" /><rect
             style="fill:#00b78b;fill-opacity:1;stroke:none;stroke-width:0.264999"
             id="rect17-1-8-4-4-7-7-0-5-2-0-8"
             width="3.600328"
             height="3.600328"
             x="95.211731"
             y="84.446518" /></g><g
           id="g21-0-0"
           style="display:inline;fill:#f9f9f9"
           transform="translate(-2.1482032,-43.791936)"><rect
             style="fill:#f9f9f9;stroke:none;stroke-width:0.264999"
             id="rect17-1-3-7"
             width="3.600328"
             height="3.600328"
             x="75.018181"
             y="79.074654" /><rect
             style="fill:#f9f9f9;stroke:none;stroke-width:0.264999"
             id="rect17-1-7-9-5"
             width="3.600328"
             height="3.600328"
             x="78.354904"
             y="84.417755" /></g></g><path
         style="font-weight:bold;font-size:25.4px;-inkscape-font-specification:'sans-serif Bold';fill:#024079;stroke-width:0.265"
         d="m 56.751754,140.94858 -4.973339,18.46708 h -5.270996 l -3.311426,-12.03027 -3.224609,12.03027 h -5.270997 l -4.973339,-18.46708 h 4.973339 l 2.840137,12.7124 3.398242,-12.7124 h 4.750098 l 3.237012,12.7124 2.976562,-12.7124 z m 13.158887,18.46708 H 59.095797 v -3.27421 h 3.026172 v -11.91866 h -3.026172 v -3.27421 h 10.814844 v 3.27421 h -3.026172 v 11.91866 h 3.026172 z m 17.202048,0 H 73.792572 v -18.46708 h 4.7625 v 14.89521 h 8.557617 z m 20.315041,-9.21494 q 0,2.57969 -1.17822,4.62608 -1.17823,2.03398 -2.97657,3.12539 -1.35185,0.81855 -2.96416,1.14101 -1.612302,0.32246 -3.819919,0.32246 h -6.51123 v -18.46708 h 6.697265 q 2.257227,0 3.894334,0.38447 1.63711,0.37207 2.75332,1.0666 1.90996,1.16582 3.00137,3.15019 1.10381,1.97198 1.10381,4.65088 z m -4.92373,-0.0372 q 0,-1.82315 -0.66973,-3.11299 -0.65732,-1.30225 -2.095995,-2.03399 -0.731738,-0.35966 -1.500684,-0.48369 -0.756543,-0.13642 -2.294433,-0.13642 h -1.203027 v 11.55898 h 1.203027 q 1.699121,0 2.492871,-0.14883 0.79375,-0.16123 1.550293,-0.57051 1.302248,-0.74414 1.909958,-1.98437 0.60772,-1.25264 0.60772,-3.08818 z"
         id="text41-8"
         aria-label="WILD" /><path
         style="font-weight:bold;font-size:25.4px;-inkscape-font-specification:'sans-serif Bold';fill:#333333;stroke-width:0.265"
         d="M 126.60929,159.03119 H 113.25197 V 140.5641 h 13.35732 v 3.57187 h -8.61963 v 3.18741 h 7.99952 v 3.57187 h -7.99952 v 4.56406 h 8.61963 z m 21.44365,-9.21494 q 0,2.57969 -1.17822,4.62607 -1.17822,2.03399 -2.97656,3.12539 -1.35186,0.81856 -2.96416,1.14102 -1.61231,0.32246 -3.81992,0.32246 h -6.51123 V 140.5641 h 6.69726 q 2.25723,0 3.89434,0.38447 1.63711,0.37207 2.75332,1.0666 1.90996,1.16582 3.00136,3.1502 1.10381,1.97197 1.10381,4.65088 z m -4.92373,-0.0372 q 0,-1.82314 -0.66972,-3.11299 -0.65733,-1.30224 -2.096,-2.03398 -0.73174,-0.35967 -1.50068,-0.48369 -0.75655,-0.13643 -2.29444,-0.13643 h -1.20302 v 11.55899 h 1.20302 q 1.69912,0 2.49287,-0.14883 0.79375,-0.16123 1.5503,-0.57051 1.30224,-0.74414 1.90996,-1.98438 0.60771,-1.25263 0.60771,-3.08818 z m 24.89151,8.19795 q -1.24024,0.48369 -3.28663,0.96738 -2.04638,0.47129 -4.08037,0.47129 -4.71289,0 -7.37939,-2.55488 -2.66651,-2.56729 -2.66651,-7.08174 0,-4.30361 2.69131,-6.93291 2.69131,-2.6417 7.50342,-2.6417 1.82315,0 3.47266,0.33486 1.64951,0.32247 3.67109,1.30225 v 4.32842 h -0.5333 q -0.34727,-0.26045 -1.01699,-0.73174 -0.66973,-0.48369 -1.28985,-0.81855 -0.71933,-0.39688 -1.68671,-0.68213 -0.95498,-0.28526 -2.03399,-0.28526 -1.26504,0 -2.29443,0.37207 -1.0294,0.37207 -1.84795,1.14102 -0.78135,0.74414 -1.24024,1.89756 -0.44648,1.14101 -0.44648,2.6417 0,3.06338 1.62471,4.68808 1.6247,1.62471 4.7997,1.62471 0.27286,0 0.59532,-0.0124 0.33486,-0.0124 0.60771,-0.0372 v -3.62148 h -3.68349 v -3.48506 h 8.52041 z m 17.62373,1.0542 h -13.35733 v -18.4671 h 13.35733 v 3.57187 h -8.61963 v 3.18741 h 7.99951 v 3.57187 h -7.99951 v 4.56406 h 8.61963 z"
         id="text43-2"
         aria-label="EDGE" /></g></g></svg>
